PathFileType	4	(X/Y/Z)	C:/Users/opensim2020/Desktop/walking_exp_matlab/subject01_walking07_straight_04.trc	
DataRate	CameraRate	NumFrames	NumMarkers	Units	OrigDataRate	OrigDataStartFrame	OrigNumFrames	
100.00	100.00	5	43	mm	100.00	2922	176	
Frame#	Time	LFHD			RFHD			LBHD			RBHD			C7			T10			CLAV			STRN			RBAK			LSHO			LUPA			LELB			LFRM			LWRA			LWRB			LFIN			RSHO			RUPA			RELB			RFRM			RWRA			RWRB			RFIN			LASI			RASI			LPSI			RPSI			LTHI			LKNE			LTIB			LANK			LHEE			LTOE			RTHI			RKNE			RTIB			RANK			RHEE			RTOE			*39			*40			*41			*42			
		X1	Y1	Z1	X2	Y2	Z2	X3	Y3	Z3	X4	Y4	Z4	X5	Y5	Z5	X6	Y6	Z6	X7	Y7	Z7	X8	Y8	Z8	X9	Y9	Z9	X10	Y10	Z10	X11	Y11	Z11	X12	Y12	Z12	X13	Y13	Z13	X14	Y14	Z14	X15	Y15	Z15	X16	Y16	Z16	X17	Y17	Z17	X18	Y18	Z18	X19	Y19	Z19	X20	Y20	Z20	X21	Y21	Z21	X22	Y22	Z22	X23	Y23	Z23	X24	Y24	Z24	X25	Y25	Z25	X26	Y26	Z26	X27	Y27	Z27	X28	Y28	Z28	X29	Y29	Z29	X30	Y30	Z30	X31	Y31	Z31	X32	Y32	Z32	X33	Y33	Z33	X34	Y34	Z34	X35	Y35	Z35	X36	Y36	Z36	X37	Y37	Z37	X38	Y38	Z38	X39	Y39	Z39	X40	Y40	Z40	X41	Y41	Z41	X42	Y42	Z42	X43	Y43	Z43	

155	1.540	-1013.56934	-623.05872	1651.94849	-1112.78748	-680.53778	1653.42078	-1069.74426	-514.86548	1618.05676	-1175.11926	-573.07349	1619.84180	-1090.47070	-475.36392	1416.93457	-1085.98669	-447.06958	1121.51392	-1083.90527	-619.22083	1350.23706	-1073.67053	-666.72253	1198.09351	-1158.33704	-426.94193	1218.07458	-925.87427	-556.32416	1387.05823	-834.81537	-552.65198	1204.27686	-829.47241	-564.45319	1050.92773	-799.77039	-640.42926	964.74469	-808.55090	-759.66229	893.50287	-789.75366	-710.71136	865.25708	-771.06256	-782.67853	825.68817	-1238.69019	-561.10840	1374.33923	-1326.71863	-487.62692	1171.95020	-1320.37976	-477.02005	1050.12683	-1349.09277	-477.22568	931.45020	-1332.92188	-530.28015	798.22522	-1369.34717	-485.23541	810.12341	-1362.57690	-498.49014	723.04474	-971.11707	-618.52008	914.88678	-1185.43030	-635.13727	926.35876	-1037.64795	-436.69565	929.15863	-1183.62476	-449.30902	935.03607	-914.82666	-553.12653	580.10834	-920.89874	-518.65735	449.17160	-917.54419	-365.76120	336.04932	-962.44312	-210.79201	177.40428	-1020.77515	-169.61969	190.14633	-965.78546	-267.45694	39.67562	-1248.75208	-657.14679	601.39478	-1218.27759	-706.78595	452.17966	-1232.78052	-682.81470	276.32831	-1190.04797	-678.80383	71.20425	-1145.50781	-626.63855	32.33713	-1176.40442	-819.54590	33.77630	-1095.94995	-664.32147	1688.62305	-3102.25635	1973.07568	1024.04626	-3138.78564	2013.02588	1022.01257			 
156	1.550	-1015.04773	-632.66583	1653.03613	-1114.07239	-690.42816	1654.15649	-1071.65869	-524.61816	1618.92163	-1176.87622	-583.21979	1620.32922	-1091.56995	-484.69455	1417.71350	-1087.19177	-456.61557	1122.49670	-1084.85657	-628.87054	1351.08728	-1074.63953	-676.29694	1198.96423	-1159.96692	-436.95734	1219.09265	-927.04401	-565.69409	1387.95349	-835.77106	-560.98755	1205.28101	-831.64966	-570.33911	1051.38025	-802.07837	-644.30341	963.51294	-811.44653	-761.85553	889.29846	-791.98389	-712.37006	862.32117	-774.17914	-783.08667	820.80505	-1239.71936	-571.41016	1375.35925	-1328.27979	-499.66251	1172.59985	-1322.35229	-490.07565	1050.60535	-1351.16907	-491.71753	931.96472	-1334.74585	-546.13873	799.22656	-1371.62097	-501.35995	810.78613	-1364.73730	-515.21082	723.75671	-973.00171	-628.08484	915.67822	-1187.30579	-644.71155	927.36066	-1039.31274	-446.13931	929.75238	-1185.19397	-458.97220	935.99957	-915.20862	-569.19275	579.87433	-920.54718	-537.11914	448.74054	-917.91376	-382.82880	339.67410	-963.01904	-224.47853	184.73679	-1021.34113	-184.17743	199.30774	-966.75433	-275.06796	44.06041	-1249.85046	-662.35022	601.24072	-1219.24512	-711.90442	451.72775	-1233.18152	-685.47308	276.15891	-1189.98547	-679.09308	71.10714	-1145.49170	-626.62701	32.39699	-1176.23425	-819.64148	33.45580	-1097.48938	-673.94086	1689.29675	-3102.79248	1972.95020	1023.99274	-3138.18311	2013.20117	1022.05023			 
157	1.560	-1016.48016	-642.06531	1654.15808	-1115.24048	-700.39795	1654.94727	-1073.25769	-534.44250	1619.78381	-1178.07764	-593.50629	1620.84619	-1092.29419	-494.67001	1418.48132	-1088.55652	-466.00394	1123.56506	-1085.67896	-638.66565	1352.22400	-1075.44641	-685.68842	1199.82495	-1161.59253	-446.82114	1220.25342	-927.94305	-574.82892	1388.73584	-836.72021	-569.04779	1206.16223	-833.50806	-576.17334	1051.92554	-804.36096	-647.99835	962.16132	-814.43286	-763.72491	884.95380	-794.72864	-713.47308	859.45410	-777.54779	-783.48419	815.77509	-1240.65405	-581.59662	1376.45190	-1329.96362	-511.59204	1173.33533	-1324.28601	-503.13019	1051.14771	-1353.53857	-506.48978	932.44257	-1336.48596	-562.27734	800.40680	-1373.60925	-517.47540	811.48077	-1366.93604	-532.42218	724.70599	-974.73993	-637.18762	916.57281	-1189.03979	-654.10498	928.22327	-1041.11169	-455.24280	930.28296	-1186.86133	-468.37527	937.14606	-915.71442	-584.85590	579.91632	-920.50415	-555.35394	448.44931	-918.01202	-400.70630	342.71780	-964.10663	-239.72887	191.81097	-1021.81134	-199.39738	208.07072	-967.60938	-284.88910	48.94095	-1251.24670	-667.77332	601.33807	-1220.41675	-716.58832	451.18173	-1233.62915	-687.75763	275.90637	-1189.88501	-679.39600	71.10021	-1145.42896	-626.65015	32.43767	-1176.18884	-819.71155	33.25127	-1098.82861	-683.79547	1690.11548	-3102.47461	1972.90332	1023.91559	-3138.23145	2013.12646	1022.17383			 
158	1.570	-1017.77130	-651.97168	1655.30847	-1116.10657	-710.32355	1655.71521	-1074.94885	-544.16028	1620.91382	-1179.58167	-603.63892	1621.57153	-1094.33154	-503.84845	1419.91565	-1090.09277	-475.35986	1124.67419	-1086.36267	-648.20642	1353.09436	-1076.21826	-695.04834	1200.64648	-1163.24097	-456.54865	1221.54456	-928.78131	-584.11511	1389.44080	-837.79407	-576.76819	1206.91675	-835.35724	-582.03131	1052.68665	-806.52271	-651.44556	960.84113	-817.48926	-765.22406	880.51263	-797.12683	-714.28021	856.36475	-780.88220	-783.62860	810.81744	-1241.46484	-591.80737	1377.50659	-1331.66772	-523.49921	1174.16357	-1326.21716	-516.09705	1051.67163	-1355.32910	-521.12366	933.04254	-1338.41809	-578.95880	801.91833	-1375.77588	-534.24750	812.25153	-1369.15186	-550.11444	725.77936	-976.19910	-646.31738	917.38159	-1190.60437	-663.32251	928.98053	-1042.94006	-464.44031	930.71942	-1188.41431	-477.58023	938.03162	-916.41730	-600.08337	580.28595	-920.72424	-573.61249	448.62634	-918.03644	-419.30609	344.89200	-965.39288	-255.85706	199.09158	-1022.46259	-215.17349	216.25383	-967.17554	-295.92679	53.92245	-1251.91833	-673.11768	601.30383	-1221.61145	-720.66034	450.70276	-1234.16003	-689.72284	275.60474	-1189.94910	-679.30853	71.00239	-1145.51953	-626.45599	32.46870	-1176.07581	-819.78882	33.06662	-1100.00122	-693.70477	1690.92737	-3102.55518	1972.98694	1024.69165	-3138.43628	2013.14246	1022.22797			 
159	1.580	-1018.70874	-661.13562	1656.25244	-1116.83362	-720.29376	1656.48694	-1076.31592	-553.90387	1621.81079	-1180.24536	-614.03937	1622.13977	-1094.77539	-513.87952	1420.92419	-1091.73340	-484.56818	1125.79346	-1086.96179	-657.84161	1354.09729	-1076.85437	-704.25397	1201.41760	-1164.87012	-466.13129	1222.90295	-929.54761	-593.30603	1390.12805	-838.93732	-584.24408	1207.47095	-837.13715	-588.00525	1052.97241	-808.63812	-654.78931	959.49896	-820.47980	-766.35895	876.10425	-799.46570	-715.16553	853.28577	-784.34991	-782.84052	805.68127	-1242.19360	-601.97784	1378.66211	-1333.53320	-535.37854	1175.11084	-1328.16138	-529.13098	1052.31824	-1357.40149	-536.00488	933.65192	-1340.09644	-595.54895	803.35730	-1377.88440	-551.00427	813.04108	-1371.38342	-568.26910	726.99719	-977.46637	-654.96057	918.23828	-1192.03271	-672.31073	929.59265	-1044.65955	-473.05994	931.24670	-1190.19861	-486.44156	938.86115	-917.00195	-614.95734	581.07037	-921.22534	-591.83563	449.14136	-918.17487	-438.31122	346.52884	-966.94592	-272.41150	205.43622	-1024.00537	-231.86345	223.13248	-966.25067	-309.45917	59.69905	-1253.34131	-679.22760	601.42657	-1222.79932	-724.46832	450.01971	-1234.81616	-691.41528	275.29492	-1189.95935	-679.38672	71.05660	-1145.35095	-626.60651	32.48974	-1176.04102	-819.83203	32.96337	-1100.90674	-703.77161	1691.87292	-3103.15039	1972.69580	1024.58423	-3138.44263	2013.16663	1022.16888			 
